<svg xmlns="http://www.w3.org/2000/svg" viewBox="0 0 32 32" width="20" height="20" style="border-color: rgba(187,187,187,1);border-width: 0px;border-style: solid" filter="none">
    
    <g>
    <path d="M18.667 27.556c0 1.473-1.194 2.667-2.667 2.667s-2.667-1.194-2.667-2.667h5.333zM16 3.556c0.491 0 0.889 0.398 0.889 0.889l0 0.925c5.475 0.452 9.778 5.038 9.778 10.63v8.889h2.667c0.491 0 0.889 0.398 0.889 0.889s-0.398 0.889-0.889 0.889h-26.667c-0.491 0-0.889-0.398-0.889-0.889s0.398-0.889 0.889-0.889h2.667v-8.889c0-5.592 4.303-10.178 9.778-10.63v-0.925c0-0.491 0.398-0.889 0.889-0.889z" fill="rgba(241.99499999999998,166.005,33.915,1)"></path>
    </g>
  </svg>