<svg xmlns="http://www.w3.org/2000/svg" viewBox="0 0 32 32" width="16" height="16" style="border-color: rgba(187,187,187,1);border-width: 0px;border-style: solid" filter="none">
    
    <g>
    <path d="M16 28.444c6.873 0 12.444-5.572 12.444-12.444s-5.572-12.444-12.444-12.444c-6.873 0-12.444 5.572-12.444 12.444s5.572 12.444 12.444 12.444zM16 30.222c-7.855 0-14.222-6.367-14.222-14.222s6.367-14.222 14.222-14.222 14.222 6.367 14.222 14.222-6.367 14.222-14.222 14.222z" fill="rgba(255,255,255,1)"></path><path d="M16.051 8.876l5.657 5.657c0.347 0.347 0.347 0.91 0 1.257s-0.91 0.347-1.257 0l-3.574-3.574v9.994c0 0.491-0.398 0.889-0.889 0.889s-0.889-0.398-0.889-0.889v-9.867l-3.448 3.448c-0.347 0.347-0.91 0.347-1.257 0s-0.347-0.91 0-1.257l5.657-5.657z" fill="rgba(255,255,255,1)"></path>
    </g>
  </svg>